# Generated by Visualization Toolkit
v -0.5 -0.5 -0.5
v -0.5 -0.5 0.5
v -0.5 0.5 -0.5
v -0.5 0.5 0.5
v 0.5 -0.5 -0.5
v 0.5 -0.5 0.5
v 0.5 0.5 -0.5
v 0.5 0.5 0.5
v -0.5 -0.5 -0.5
v -0.5 -0.5 0.5
v 0.5 -0.5 -0.5
v 0.5 -0.5 0.5
v -0.5 0.5 -0.5
v -0.5 0.5 0.5
v 0.5 0.5 -0.5
v 0.5 0.5 0.5
v -0.5 -0.5 -0.5
v 0.5 -0.5 -0.5
v -0.5 0.5 -0.5
v 0.5 0.5 -0.5
v -0.5 -0.5 0.5
v 0.5 -0.5 0.5
v -0.5 0.5 0.5
v 0.5 0.5 0.5
vn 1 0 0
vn 1 0 0
vn 1 0 0
vn 1 0 0
vn -1 0 0
vn -1 0 0
vn -1 0 0
vn -1 0 0
vn 0 1 0
vn 0 1 0
vn 0 1 0
vn 0 1 0
vn 0 -1 0
vn 0 -1 0
vn 0 -1 0
vn 0 -1 0
vn 0 0 1
vn 0 0 1
vn 0 0 1
vn 0 0 1
vn 0 0 -1
vn 0 0 -1
vn 0 0 -1
vn 0 0 -1
# tcoords array 0
vt 0 0
vt 1 0
vt 0 1
vt 1 1
vt 0 0
vt 0 1
vt 0 0
vt 0 -1
vt 0 0
vt 0 -1
vt 1 0
vt 1 -1
vt 0 0
vt 0 1
vt 0 0
vt 1 0
vt 0 1
vt 1 1
f 3/3/3 2/2/2 1/1/1
f 2/2/2 3/3/3 4/4/4
f 6/6/6 7/7/7 5/5/5
f 7/7/7 6/6/6 8/8/8
f 10/10/10 11/11/11 9/9/9
f 11/11/11 10/10/10 12/12/12
f 15/15/15 14/14/14 13/13/13
f 14/14/14 15/15/15 16/16/16
f 18/18/18 19/19/19 17/17/17
f 19/19/19 18/18/18 20/20/20
f 23/23/23 22/22/22 21/21/21
f 22/22/22 23/23/23 24/24/24
